<?xml version="1.0" encoding="UTF-8" standalone="no"?>
<!DOCTYPE svg PUBLIC "-//W3C//DTD SVG 1.1//EN" "http://www.w3.org/Graphics/SVG/1.1/DTD/svg11.dtd">
<svg width="100%" height="100%" viewBox="0 0 747 165" version="1.1" xmlns="http://www.w3.org/2000/svg" xmlns:xlink="http://www.w3.org/1999/xlink" xml:space="preserve" xmlns:serif="http://www.serif.com/" style="fill-rule:evenodd;clip-rule:evenodd;stroke-linejoin:round;stroke-miterlimit:2;">
    <g transform="matrix(4.16667,0,0,4.16667,-335.296,-275.892)">
        <path d="M96.033,69.975C96.033,72.052 94.35,73.736 92.273,73.736C90.196,73.736 88.513,72.052 88.513,69.975C88.513,67.898 90.196,66.214 92.273,66.214C94.35,66.214 96.033,67.898 96.033,69.975Z" style="fill:rgb(252,175,22);fill-rule:nonzero;"/>
        <path d="M88.839,74.55L83.117,74.549C81.655,74.549 80.471,75.734 80.471,77.195C80.471,78.657 81.655,79.841 83.117,79.841L89.505,79.841C88.354,83.051 86.205,85.784 83.424,87.659L83.429,87.665C82.751,88.143 82.307,88.931 82.307,89.823C82.307,91.282 83.489,92.464 84.948,92.464C85.543,92.464 86.09,92.266 86.531,91.934L86.535,91.939C88.812,90.374 90.767,88.375 92.282,86.062C90.115,82.752 88.851,78.8 88.839,74.55Z" style="fill:rgb(113,191,68);fill-rule:nonzero;"/>
        <path d="M94.131,74.55L88.839,74.55C88.851,78.797 90.114,82.748 92.279,86.057C93.511,84.174 94.451,82.082 95.034,79.847L95.038,79.841C95.038,79.841 94.486,78.505 94.279,76.912C94.11,75.605 94.131,74.55 94.131,74.55Z" style="fill:rgb(8,109,64);fill-rule:nonzero;"/>
        <path d="M101.135,87.665L101.139,87.659C98.359,85.786 96.211,83.054 95.06,79.847L95.059,79.847L95.058,79.841L95.038,79.841L95.035,79.847L95.034,79.847C94.451,82.083 93.511,84.175 92.278,86.058C93.793,88.373 95.749,90.373 98.028,91.939L98.032,91.934C98.473,92.266 99.019,92.464 99.614,92.464C101.074,92.464 102.256,91.282 102.256,89.823C102.256,88.931 101.812,88.143 101.135,87.665Z" style="fill:rgb(237,27,45);fill-rule:nonzero;"/>
        <path d="M101.448,74.549L94.131,74.55C94.131,74.55 94.11,75.605 94.279,76.912C94.486,78.505 95.038,79.841 95.038,79.841L101.448,79.841C102.91,79.841 104.094,78.657 104.094,77.195C104.094,75.734 102.91,74.549 101.448,74.549Z" style="fill:rgb(0,123,169);fill-rule:nonzero;"/>
        <g transform="matrix(0.24,0,0,0.24,80.471,66.214)">
            <path d="M164.837,151.067C163.742,160.025 157.388,164.554 148.533,164.554C136.867,164.554 130.358,157.108 130.358,145.65L130.358,145.229C130.358,134.033 138.067,126.221 148.429,126.221C156.971,126.221 163.588,130.496 164.421,139.242L157.388,139.242C156.608,134.296 153.846,131.742 148.483,131.742C141.921,131.742 137.65,136.85 137.65,145.183L137.65,145.596C137.65,153.983 141.658,158.929 148.533,158.929C153.692,158.929 157.338,156.325 158.067,151.067L164.837,151.067ZM215.775,155.7C214.888,161.429 210.254,164.554 203.275,164.554C195.254,164.554 189.471,159.292 189.471,150.7L189.471,150.283C189.471,141.846 195.254,136.225 203.012,136.225C209.783,136.225 215.879,140.233 215.879,149.971L215.879,151.792L195.929,151.792C196.137,156.95 198.742,159.867 203.429,159.867C207.233,159.867 209.213,158.358 209.679,155.7L215.775,155.7ZM244.729,153.875C244.262,160.125 239.521,164.554 232.129,164.554C224.317,164.554 218.379,159.45 218.379,150.75L218.379,150.338C218.379,141.692 224.525,136.225 232.129,136.225C238.171,136.225 243.846,138.933 244.575,146.429L238.479,146.429C237.958,142.788 235.567,141.275 232.229,141.275C227.908,141.275 224.838,144.608 224.838,150.229L224.838,150.65C224.838,156.588 227.754,159.713 232.388,159.713C235.721,159.713 238.587,157.729 238.95,153.875L244.729,153.875ZM306.346,164.554C314.367,164.554 320.354,159.033 320.354,150.546L320.354,150.129C320.354,141.796 314.367,136.225 306.396,136.225C298.375,136.225 292.387,141.846 292.387,150.283L292.387,150.7C292.387,158.983 298.325,164.554 306.346,164.554ZM330.513,153.517C330.513,153.735 330.517,153.953 330.528,154.171C330.538,154.377 330.553,154.582 330.574,154.786C330.688,155.873 330.977,156.991 331.666,157.862C332.125,158.443 332.743,158.867 333.436,159.124C334.03,159.345 334.663,159.449 335.294,159.487C336.108,159.536 336.927,159.48 337.718,159.274C338.25,159.135 338.766,158.931 339.244,158.659C339.61,158.451 339.954,158.204 340.266,157.921C341.09,157.173 341.66,156.187 341.956,155.118C342.148,154.427 342.227,153.711 342.229,152.996L342.229,136.796L348.533,136.796L348.533,164.033L342.229,164.033L342.229,159.767C340.875,162.417 338.012,164.554 333.583,164.554C328.221,164.554 324.208,161.483 324.208,154.242L324.208,136.796L330.513,136.796L330.513,153.517ZM389.417,155.546C389.729,158.304 391.133,159.921 394.833,159.921C398.217,159.921 399.729,158.725 399.729,156.429C399.729,154.192 397.904,153.354 393.896,152.679C386.708,151.533 384.054,149.504 384.054,144.4C384.054,138.933 389.158,136.225 394.258,136.225C399.833,136.225 404.263,138.308 404.938,144.45L399.104,144.45C398.583,141.954 397.175,140.804 394.258,140.804C391.554,140.804 389.937,142.108 389.937,144.038C389.937,146.013 391.242,146.792 395.563,147.525C401.971,148.513 405.771,150.075 405.771,155.858C405.771,161.375 401.862,164.554 394.888,164.554C387.854,164.554 383.742,161.329 383.479,155.546L389.417,155.546ZM416.554,136.796L416.554,140.963C417.854,138.413 420.821,136.225 424.833,136.225C428.375,136.225 431.187,137.733 432.542,141.117C434.625,137.733 438.375,136.225 441.763,136.225C446.762,136.225 450.821,139.296 450.821,146.792L450.821,164.033L444.521,164.033L444.521,147.213C444.521,143.2 442.804,141.483 439.679,141.483C436.554,141.483 433.687,143.567 433.687,147.733L433.687,164.033L427.383,164.033L427.383,147.213C427.383,143.2 425.617,141.483 422.542,141.483C419.417,141.483 416.554,143.567 416.554,147.733L416.554,164.033L410.25,164.033L410.25,136.796L416.554,136.796ZM189.629,137.679L175.254,158.983L189.213,158.983L189.213,164.033L165.879,164.033L165.879,163.304L180.304,141.796L167.283,141.796L167.283,136.796L189.629,136.796L189.629,137.679ZM254.367,141.117C254.619,140.607 254.923,140.125 255.278,139.68C255.587,139.29 255.933,138.929 256.307,138.601C256.62,138.326 256.953,138.074 257.302,137.846C257.575,137.669 257.857,137.505 258.147,137.357C259.94,136.442 261.99,136.127 263.987,136.25C264.914,136.307 265.837,136.465 266.718,136.763C267.752,137.113 268.718,137.659 269.523,138.399C269.799,138.652 270.055,138.926 270.29,139.217C271.57,140.804 272.164,142.826 272.383,144.825C272.419,145.146 272.445,145.468 272.462,145.791C272.482,146.16 272.491,146.53 272.492,146.9L272.492,164.033L266.188,164.033L266.188,147.471C266.188,143.358 264.521,141.483 260.771,141.483C257.229,141.483 254.367,143.671 254.367,147.992L254.367,164.033L248.062,164.033L248.062,124.192L254.367,124.192L254.367,141.117ZM279.367,132.263L269,132.263L269,126.796L296.708,126.796L296.708,132.263L286.346,132.263L286.346,164.033L279.367,164.033L279.367,132.263ZM360.721,136.796L360.721,141.9C362.437,138.463 364.992,136.429 369.575,136.379L369.575,142.267C364.054,142.317 360.721,144.088 360.721,149.871L360.721,164.033L354.417,164.033L354.417,136.796L360.721,136.796ZM373.167,136.796L379.467,136.796L379.467,164.033L373.167,164.033L373.167,136.796ZM306.396,159.658C301.604,159.658 298.846,156.167 298.846,150.596L298.846,150.179C298.846,144.558 301.708,141.171 306.396,141.171C311.083,141.171 313.896,144.608 313.896,150.229L313.896,150.596C313.896,156.167 311.083,159.658 306.396,159.658ZM209.629,147.575C209.317,142.888 206.921,140.804 203.012,140.804C199.212,140.804 196.658,143.358 196.033,147.575L209.629,147.575ZM376.242,132.317C378.325,132.317 379.987,130.754 379.987,128.725C379.987,126.642 378.325,125.079 376.242,125.079C374.154,125.079 372.487,126.642 372.487,128.725C372.487,130.754 374.154,132.317 376.242,132.317ZM599.233,125.233L586.833,125.233L596.729,101.063L575.171,52.104L588.812,52.104L603.296,87.208L616.629,52.104L628.921,52.104L599.233,125.233ZM319.858,125.233L307.462,125.233L317.358,101.063L295.796,52.104L309.442,52.104L323.921,87.208L337.254,52.104L349.55,52.104L319.858,125.233ZM290.592,106.583L277.988,106.583L277.988,97.417C275.067,102.833 268.087,107.625 260.071,107.625C246.421,107.625 236.108,97.938 236.108,80.229L236.108,79.396C236.108,62 246.421,50.958 260.592,50.958C269.442,50.958 274.967,55.021 277.988,60.438L277.988,26.892L290.592,26.892L290.592,106.583ZM569.962,106.583L557.354,106.583L557.354,97.417C554.442,102.833 547.458,107.625 539.438,107.625C525.792,107.625 515.479,97.938 515.479,80.229L515.479,79.396C515.479,62 525.792,50.958 539.958,50.958C548.813,50.958 554.337,55.021 557.354,60.438L557.354,26.892L569.962,26.892L569.962,106.583ZM698.5,71.375L686.313,71.375C685.271,64.083 680.479,61.063 673.813,61.063C665.167,61.063 659.021,67.729 659.021,78.979L659.021,79.817C659.021,91.688 664.854,97.938 674.125,97.938C680.792,97.938 686.521,93.979 687.25,86.271L698.813,86.271C697.875,98.771 688.396,107.625 673.604,107.625C657.979,107.625 646.104,97.417 646.104,80.021L646.104,79.188C646.104,61.896 658.392,50.958 673.604,50.958C685.687,50.958 697.046,56.375 698.5,71.375ZM508.296,106.583L495.688,106.583L495.688,98.046C492.983,103.354 487.25,107.625 478.396,107.625C467.667,107.625 459.646,101.483 459.646,87L459.646,52.104L472.25,52.104L472.25,85.546C472.25,93.771 475.692,97.525 482.983,97.525C489.754,97.525 495.688,93.15 495.688,84.504L495.688,52.104L508.296,52.104L508.296,106.583ZM229.446,106.583L216.842,106.583L216.842,98.046C214.129,103.354 208.4,107.625 199.546,107.625C188.817,107.625 180.796,101.483 180.796,87L180.796,52.104L193.4,52.104L193.4,85.546C193.4,93.771 196.837,97.525 204.129,97.525C210.904,97.525 216.842,93.15 216.842,84.504L216.842,52.104L229.446,52.104L229.446,106.583ZM625.688,99.188C625.688,94.604 629.333,90.958 633.917,90.958C638.604,90.958 642.25,94.604 642.25,99.188C642.25,103.775 638.604,107.317 633.917,107.317C629.333,107.317 625.688,103.775 625.688,99.188ZM414.65,106.583L402.042,106.583L402.042,52.104L414.65,52.104L414.65,60.75C417.254,55.438 423.296,50.958 432.254,50.958C443.192,50.958 450.9,57.313 450.9,72.313L450.9,106.583L438.296,106.583L438.296,73.458C438.296,65.229 434.962,61.479 427.462,61.479C420.379,61.479 414.65,65.854 414.65,74.5L414.65,106.583ZM745.896,106.583L699.229,106.583L699.229,105.129L728.088,62.104L702.042,62.104L702.042,52.104L746.729,52.104L746.729,53.875L717.979,96.483L745.896,96.483L745.896,106.583ZM395.796,106.583L349.129,106.583L349.129,105.129L377.983,62.104L351.942,62.104L351.942,52.104L396.629,52.104L396.629,53.875L367.879,96.483L395.796,96.483L395.796,106.583ZM143.404,106.583L130.796,106.583L130.796,26.892L143.404,26.892L143.404,76.063L162.879,52.104L176.633,52.104L155.488,77.104L178.404,106.583L163.821,106.583C157.015,97.661 150.21,88.739 143.404,79.817L143.404,106.583ZM278.4,79.604L278.4,78.775C278.4,66.792 272.883,60.854 263.717,60.854C254.442,60.854 249.025,67.313 249.025,79.083L249.025,79.917C249.025,91.896 255.067,97.625 263.196,97.625C271.942,97.625 278.4,91.796 278.4,79.604ZM557.775,79.604L557.775,78.775C557.775,66.792 552.254,60.854 543.083,60.854C533.812,60.854 528.396,67.313 528.396,79.083L528.396,79.917C528.396,91.896 534.437,97.625 542.563,97.625C551.317,97.625 557.775,91.796 557.775,79.604Z" style="fill:#003C78;fill-rule:nonzero;"/>
        </g>
    </g>
</svg>
